<svg width="48" height="48" viewBox="0 0 48 48" fill="none" xmlns="http://www.w3.org/2000/svg">
<circle cx="24" cy="24" r="24" fill="#FFEDE8"/>
<path fill-rule="evenodd" clip-rule="evenodd" d="M16 15.75C15.3096 15.75 14.75 16.3096 14.75 17V18.75H33.25V17C33.25 16.3096 32.6904 15.75 32 15.75H16ZM33.25 20.25V28H34.75V17C34.75 15.4812 33.5188 14.25 32 14.25H16C14.4812 14.25 13.25 15.4812 13.25 17V30C13.25 31.5188 14.4812 32.75 16 32.75H25V31.25H16C15.3096 31.25 14.75 30.6904 14.75 30V20.25H33.25Z" fill="#E86337"/>
<path d="M23 14C23 13.4477 23.4477 13 24 13V13C24.5523 13 25 13.4477 25 14V14.7C25 15.2523 24.5523 15.7 24 15.7V15.7C23.4477 15.7 23 15.2523 23 14.7V14Z" fill="#E86337"/>
<path d="M29 14C29 13.4477 29.4477 13 30 13V13C30.5523 13 31 13.4477 31 14V14.7C31 15.2523 30.5523 15.7 30 15.7V15.7C29.4477 15.7 29 15.2523 29 14.7V14Z" fill="#E86337"/>
<path d="M17 14C17 13.4477 17.4477 13 18 13V13C18.5523 13 19 13.4477 19 14V14.7C19 15.2523 18.5523 15.7 18 15.7V15.7C17.4477 15.7 17 15.2523 17 14.7V14Z" fill="#E86337"/>
<path fill-rule="evenodd" clip-rule="evenodd" d="M29.5 33.5C31.7091 33.5 33.5 31.7091 33.5 29.5C33.5 27.2909 31.7091 25.5 29.5 25.5C27.2909 25.5 25.5 27.2909 25.5 29.5C25.5 31.7091 27.2909 33.5 29.5 33.5ZM29.5 35C32.5376 35 35 32.5376 35 29.5C35 26.4624 32.5376 24 29.5 24C26.4624 24 24 26.4624 24 29.5C24 32.5376 26.4624 35 29.5 35Z" fill="#E86337"/>
<path fill-rule="evenodd" clip-rule="evenodd" d="M29 26.75C29.4142 26.75 29.75 27.0858 29.75 27.5V29.25C29.75 29.3881 29.8619 29.5 30 29.5H31.75C32.1642 29.5 32.5 29.8358 32.5 30.25C32.5 30.6642 32.1642 31 31.75 31H30C29.0335 31 28.25 30.2165 28.25 29.25V27.5C28.25 27.0858 28.5858 26.75 29 26.75Z" fill="#E86337"/>
<path fill-rule="evenodd" clip-rule="evenodd" d="M15.25 23C15.25 22.5858 15.5858 22.25 16 22.25H26C26.4142 22.25 26.75 22.5858 26.75 23C26.75 23.4142 26.4142 23.75 26 23.75H16C15.5858 23.75 15.25 23.4142 15.25 23Z" fill="#E86337"/>
<path fill-rule="evenodd" clip-rule="evenodd" d="M15.25 26C15.25 25.5858 15.5858 25.25 16 25.25H23C23.4142 25.25 23.75 25.5858 23.75 26C23.75 26.4142 23.4142 26.75 23 26.75H16C15.5858 26.75 15.25 26.4142 15.25 26Z" fill="#E86337"/>
</svg>
